<?xml version="1.0" encoding="utf-8"?>
<!-- Generator: Adobe Illustrator 18.0.0, SVG Export Plug-In . SVG Version: 6.00 Build 0)  -->
<!DOCTYPE svg PUBLIC "-//W3C//DTD SVG 1.1//EN" "http://www.w3.org/Graphics/SVG/1.1/DTD/svg11.dtd">
<svg version="1.1" id="Layer_1" xmlns="http://www.w3.org/2000/svg" xmlns:xlink="http://www.w3.org/1999/xlink" x="0px" y="0px"
	 viewBox="0 0 550 515.1" enable-background="new 0 0 550 515.1" xml:space="preserve">
<g>
	<path fill="#312821" d="M108.1,260.1c1.9,3.4,0.6,7.1,0.8,10.7C107.8,267.3,107.9,263.7,108.1,260.1z"/>
	<linearGradient id="SVGID_1_" gradientUnits="userSpaceOnUse" x1="87.1329" y1="247.9951" x2="462.8312" y2="247.9951">
		<stop  offset="0" style="stop-color:#2B2A2B"/>
		<stop  offset="0.2908" style="stop-color:#000000"/>
		<stop  offset="0.6122" style="stop-color:#0E0E0E"/>
		<stop  offset="0.7755" style="stop-color:#545557"/>
		<stop  offset="1" style="stop-color:#000000"/>
	</linearGradient>
	<path fill="url(#SVGID_1_)" d="M275.5,117.2c-93.4,0-170.9-20.3-185.1-46.8c-1.3-1.3-2.2-2.9-2.2-5.1c-1.6,2.6-1.1,5.4-0.5,8
		c7.7,32.1,9.7,64.9,13.1,97.5c1,9.7,2,19.5,3,29.2c0,0.3,0.1,0.7,0.1,1c0,3.1-0.2,6.3,0.5,9.3c0.1,0.5,0.2,1,0.4,1.5
		c0.1,0.9,0.1,1.7,0.2,2.6c-0.1,3.1-0.3,6.3,0.5,9.3c0,0.5,0.2,1,0.4,1.4c0,11.6,1,23.2,2.3,34.8c1.1,3.5-0.3,7.2,0.8,10.7
		c0,6.4,0,12.9,0,19.3c1.8,2.1,2.1,4.6,2.2,7.2c0.7,14.3-0.6,28.5-2.3,42.6c-2.1,16.8-4.5,33.6-8.4,50c0,0,30.5,29.7,90.2,39
		c0,0,0,0,0,0l0,0c1.7,0.3,3.5,0.5,5.3,0.7c0.4-0.2,0.6,3,1,2.8c0.2,0.4,0.7-2.8,1-2.5c1.1,0.1,2.1,0.2,3.2,0.4
		c0.1-0.1,0.3,1.5,0.4,1.4c0.3,0.2,0.6-1.4,0.9-1.3c0.5,0.1,1,0.1,1.6,0.2c0.6-0.1,4,1.6,4.5,1.1c0.5,0.1,16.6,0.7,17.1,0.7
		c16.2-0.3,12-0.1,28.2-1.9c6.9-0.7,15.4-2.4,22.3-3.1c4.5-0.9,9.4-2.4,13.9-3.2l0,0c73.7-16.9,115.8-37.1,138-50.9
		c0.2-0.2,0.4-0.3,0.6-0.5c0.3-0.2,0.6-0.3,0.9-0.4c14.3-9.1,19.7-15.1,19.7-15.1l-1.9-36.3c0,0-1.2-46.5,0.3-69.7
		c2-30.7,4.5-61.4,6.8-92.1c2.3-30.5,4.1-61.1,8.1-91.5c0.2-1.3,0.2-2.7,0.1-4.1C459.5,93.4,376.9,117.2,275.5,117.2z"/>
	<linearGradient id="SVGID_2_" gradientUnits="userSpaceOnUse" x1="93.6579" y1="410.5102" x2="449.7194" y2="410.5102">
		<stop  offset="0" style="stop-color:#2B2A2B"/>
		<stop  offset="0.1633" style="stop-color:#6D6E71"/>
		<stop  offset="0.2908" style="stop-color:#333333"/>
		<stop  offset="0.449" style="stop-color:#6D6E71"/>
		<stop  offset="0.6122" style="stop-color:#0E0E0E"/>
		<stop  offset="0.7755" style="stop-color:#545557"/>
		<stop  offset="1" style="stop-color:#000000"/>
	</linearGradient>
	<path fill="url(#SVGID_2_)" d="M449.7,361.1c-11.2,35.8-48.7,79.2-141.3,94.6c-145.5,24.2-176.4-12.6-202-24.9
		c-3.9-1.9-12.7-12.9-12.7-12.9l6.7-28.1c0,0,64.5,63,189.7,34.3c125.2-28.7,159.3-67,159.3-67L449.7,361.1z"/>
	<g>
		<linearGradient id="SVGID_3_" gradientUnits="userSpaceOnUse" x1="14.1442" y1="395.0726" x2="528.2257" y2="395.0726">
			<stop  offset="0" style="stop-color:#2B2A2B"/>
			<stop  offset="0.2908" style="stop-color:#000000"/>
			<stop  offset="0.6122" style="stop-color:#0E0E0E"/>
			<stop  offset="0.7755" style="stop-color:#545557"/>
			<stop  offset="1" style="stop-color:#000000"/>
		</linearGradient>
		<path fill="url(#SVGID_3_)" d="M66.8,297.1c-15.9,6.1-28.9,16-38.6,30.1c-4.6,8.8-9,17.6-11.3,27.4c-5.8,24.6-2.4,47.8,9.2,70.1
			l0,0c4.6,9.3,11,17.3,18.1,24.8c1.3,1.3,3,2.3,3.5,4.3v0l0,0c7.7,7,16.4,12.7,25.3,18.2c1,0.6,1.9,1.4,2.9,2
			c10.6,5.6,21.8,9.7,33.1,13.7c17.4,4.1,35,7.4,52.7,9.5h0l0,0c8.6,0.7,17.2,1.4,25.9,2.1c10.7,0.9,21.4,0.9,32.1,0.8l0,0
			c0.6-0.3,1.2-0.9,1.8-0.9c12.3,0.4,24.4-1.4,36.5-2.2l0,0c9.8-2.1,19.6-4.1,29.3-6.2c1.8-0.4,3.5-0.8,5.3-1.2l0,0l0,0
			c2.5-0.6,5.1-1.1,7.7-1.4c0,0,0.1,0,0.1,0c11.6-2.9,37.5-11.8,86.1-39.2c1.1-0.7,2.2-1.3,3.5-1.9c8.4-4,16.2-9.4,24.2-14.2
			c13.7-10,28.1-19.2,41.3-29.9c2.1-1.7,4.2-3.5,6.4-5.2l0,0c6.6-6.1,13.2-12.1,19.9-18.2c4.7-4.4,28.9-27.1,43.9-49.9
			c1.2-1.7,2.4-3.3,2.5-5.5c0.9-4.4-2.3-7.2-4.2-10.6c-5,2.9-9.8,6.1-16,6.4c-20.1,1.1-40.3,1.3-60.4,0.8c0,3.2,1.9,36.3,1.9,36.3
			l0.4,3.9c-11.2,35.8-48.7,79.2-141.3,94.6c-37.9,6.3-69.1,7.9-94.8,6.7c-2,0-4.1,0-6.1,0c-7.6,0.3-14.9-1.4-22.4-1.9
			c-5-0.3-9.9-1.6-14.8-2.6c-3.8-0.8-7.7-1.6-11.4-3c-2.5-0.7-4.9-1.5-7.3-2.4c-3.1-0.8-5.9-2.2-8.9-3.2c-1.3-0.5-2.6-1-3.9-1.6
			c-19.1-7.7-28.7-15.9-32.1-17.8c-8.8-4.7-11.7-17-11.7-17l5.4-23c0,0,0.4,0.4,1.1,1c0.2-0.9,0.5-1.8,0.7-2.6c4.4-19.3,7-39,9-58.7
			c1.1-10.6,1.8-21.3,1.2-32c-0.2-2.8,0.6-6.4-3.5-7.5c-13.4-0.5-26.5,0.7-39.3,5.1C69.1,296.5,67.8,296.7,66.8,297.1z"/>
	</g>
	<path fill="#414042" d="M545.6,322.9c-3.7-3.5-7.6-6.8-12.3-8.9c-3.1-1.6-6.2-2.1-9.4-0.3c1.9,3.3,5.1,6.1,4.2,10.6
		c-0.1,2.1-1.3,3.8-2.5,5.5c-15,22.8-39.1,45.5-43.9,49.9c-6.6,6.1-13.2,12.1-19.9,18.2l0,0c-2.1,1.7-4.2,3.5-6.4,5.2
		c-13.2,10.7-27.5,19.9-41.3,29.9c-8,4.8-15.8,10.3-24.2,14.2c-1.3,0.6-2.4,1.3-3.5,1.9c-48.6,27.3-74.5,36.3-86.1,39.2
		c0,0-0.1,0-0.1,0c-2.6,0.3-5.2,0.8-7.7,1.4l0,0l0,0c-1.8,0.4-3.5,0.8-5.3,1.2c-9.8,2.1-19.6,4.1-29.3,6.2l0,0
		c-12.2,0.8-24.3,2.6-36.5,2.2c-0.6,0-1.2,0.6-1.8,0.9l0,0c-10.7,0.1-21.4,0-32.1-0.8c-8.6-0.7-17.2-1.4-25.9-2.1l0,0h0
		c-17.8-2.1-35.3-5.4-52.7-9.5c-11.3-4-22.5-8.2-33.1-13.7c-1-0.7-1.9-1.4-2.9-2c-8.8-5.5-17.5-11.2-25.3-18.2l0,0v0
		c-0.5-2-2.2-3-3.5-4.3c-7.1-7.4-13.5-15.4-18.1-24.8l0,0c-11.6-22.2-15.1-45.5-9.2-70.1c2.3-9.8,6.7-18.6,11.3-27.4
		c9.7-14.1,22.6-24,38.6-30.1c1.1-0.4,2.4-0.6,2.8-2c-17.9,4.4-33.1,13.3-44.6,27.9l0,0h0c-0.7,0.7-1.5,1.4-2.1,2.2
		c-18.1,25.1-23,53.1-17.8,83.1c2.4,13.8,7.9,26.5,16.3,37.9c6.2,9.7,14,18,23.3,25c8.1,7.3,17.2,13,27.1,17.5
		c10.4,5.9,21.5,9.8,33.1,12.3c20,5.3,40.4,8.4,61,10.2c8.9,0.9,17.9,1.9,26.9,1.3c13.6,1.1,27.1,0.6,40.6-1
		c9.7-0.1,19.3-1.1,28.8-3.2c10.9-1.2,21.7-3.2,32.3-5.9l0,0.1c55-13.5,88.4-33.3,88.4-33.3l0-0.1c10.5-5,20.4-11,30.3-17
		c6.8-4.1,13.7-7.9,20.2-12.3c11.4-7.6,23.2-14.5,33.4-23.7c9.7-6.8,19.1-14,27.5-22.5c0,0,0,0-0.1,0c18.7-16.3,30.3-30.9,33.8-35.7
		c2.7-3.1,5.1-6.3,7.3-9.8c4.1-4.4,7.4-9.4,10.5-14.5C548.2,330.2,549,326.1,545.6,322.9z"/>
	<radialGradient id="SVGID_4_" cx="335.383" cy="34.0013" r="159.3403" gradientUnits="userSpaceOnUse">
		<stop  offset="0" style="stop-color:#333333"/>
		<stop  offset="1" style="stop-color:#000000"/>
	</radialGradient>
	<ellipse fill="url(#SVGID_4_)" cx="275.5" cy="61.7" rx="187.5" ry="55.6"/>
</g>
</svg>
